<?xml version="1.0" encoding="UTF-8" standalone="no"?><!DOCTYPE svg PUBLIC "-//W3C//DTD SVG 1.1//EN" "http://www.w3.org/Graphics/SVG/1.1/DTD/svg11.dtd"><svg width="100%" height="100%" viewBox="0 0 14617 10338" version="1.1" xmlns="http://www.w3.org/2000/svg" xmlns:xlink="http://www.w3.org/1999/xlink" xml:space="preserve" xmlns:serif="http://www.serif.com/" style="fill-rule:evenodd;clip-rule:evenodd;stroke-linecap:square;stroke-linejoin:round;stroke-miterlimit:1.5;"><g><g><g><g><g transform="matrix(1,0,0,0.999299,0,3.37911)"><text x="1904.07px" y="4823.57px" style="font-family:'Quando-Regular', 'Quando', serif;font-size:1163.47px;fill:#20748a;">R</text></g></g><g><g transform="matrix(0.4836,0,0,1,1073.67,0)"><text x="2079.15px" y="4615.49px" style="font-family:'Quando-Regular', 'Quando', serif;font-size:658.52px;fill:#243c42;">{</text></g></g></g><g><g><path d="M3394.35,4018.71c-35.692,-0 -53.527,32.617 -53.527,97.828l-0,456.744c-0,124.379 -45.865,205.15 -137.593,242.311c-31.404,12.514 -66.912,18.765 -106.523,18.765c-39.623,0 -73.351,-4.544 -101.184,-13.644c-27.844,-9.1 -51.4,-21.233 -70.668,-36.4c-38.906,-31.095 -58.359,-68.833 -58.359,-113.191c-0,-33.379 7.328,-59.82 21.949,-79.358c14.645,-19.527 34.803,-29.29 60.498,-29.29c21.417,0 35.692,5.318 42.835,15.928c-4.288,18.2 -6.426,35.835 -6.426,52.906c-0,77.724 37.831,116.593 113.493,116.593c37.114,-0 65.664,-11.47 85.649,-34.411c19.996,-22.94 29.982,-55.459 29.982,-97.545l0,-530.687c-0.716,-20.091 -4.276,-33.367 -10.703,-39.814c-9.998,-9.481 -21.776,-15.646 -35.334,-18.483c-13.57,-2.849 -24.897,-5.403 -33.994,-7.687c-9.108,-2.272 -16.864,-5.109 -23.29,-8.523c-12.137,-6.828 -18.205,-17.635 -18.205,-32.421c0,-14.037 2.855,-24.464 8.565,-31.292c8.218,3.034 25.88,4.557 53.007,4.557l231.795,-0c40.698,-0 61.029,14.601 61.029,43.793c0,12.514 -2.843,22.179 -8.553,29.007c-12.853,-3.795 -27.66,-5.686 -44.443,-5.686Z" style="fill:#20748a;fill-rule:nonzero;"/></g><g><path d="M3269.38,4706.48c4.533,-11.148 8.15,-23.851 10.86,-38.111c2.707,-14.25 4.064,-29.038 4.064,-44.371c0,-15.324 -0.367,-29.311 -1.097,-41.959c-0.729,-12.649 -1.56,-25.08 -2.498,-37.301c-2.397,-30.867 -3.595,-52.463 -3.595,-64.789c0,-12.326 0.703,-22.187 2.109,-29.583c1.407,-7.395 3.281,-13.933 5.625,-19.614c2.344,-5.68 4.975,-10.664 7.893,-14.951c2.914,-4.288 5.885,-7.825 8.905,-10.611c5.417,-5.359 10.83,-9.111 16.246,-11.254c0.832,-2.573 1.252,-7.824 1.252,-15.756c-0,-8.146 -0.42,-13.505 -1.252,-16.077c-16.666,-6.86 -28.693,-22.079 -36.091,-45.659c-3.126,-9.861 -4.687,-21.062 -4.687,-33.601c0,-12.541 0.363,-24.598 1.092,-36.174c0.73,-11.575 1.566,-23.472 2.503,-35.692c2.397,-30.867 3.595,-55.519 3.595,-73.954c0,-18.435 -1.357,-34.78 -4.064,-49.035c-2.71,-14.256 -6.327,-26.957 -10.86,-38.103c-4.528,-11.147 -9.657,-20.74 -15.388,-28.778c-5.73,-8.039 -11.664,-14.63 -17.811,-19.775c-11.771,-10.29 -23.02,-15.435 -33.747,-15.435c-4.895,0 -8.539,4.073 -10.935,12.22c-1.977,6.644 -2.706,13.183 -2.185,19.613c17.077,0 30.829,10.29 41.243,30.868c11.249,21.865 16.873,52.304 16.873,91.318c0,17.364 -0.884,37.085 -2.657,59.164c-3.334,41.587 -4.997,68.49 -4.997,80.708c0,12.218 1.482,24.008 4.453,35.369c2.967,11.362 6.743,21.116 11.324,29.261c7.92,14.362 17.865,25.295 29.843,32.798l0,1.929c-19.792,12.433 -33.486,33.225 -41.092,62.379c-3.02,11.361 -4.528,22.616 -4.528,33.762c0,11.147 0.389,22.079 1.172,32.798c0.778,10.718 1.689,22.185 2.733,34.407c2.498,31.512 3.749,56.692 3.749,75.556c0,18.864 -1.485,35.908 -4.452,51.132c-2.967,15.215 -7.111,27.973 -12.421,38.265c-10.622,20.793 -24.373,31.185 -41.243,31.185c-0.521,6.216 -0.053,11.794 1.402,16.726c2.918,10.074 6.77,15.106 11.563,15.106c4.789,-0 10.131,-1.229 16.016,-3.695c5.881,-2.466 11.873,-6.324 17.966,-11.575c6.093,-5.25 12.001,-11.902 17.731,-19.938c5.731,-8.035 10.86,-17.626 15.388,-28.773Z" style="fill:#243c42;fill-rule:nonzero;"/></g></g></g><g><g><g transform="matrix(0.892857,0,0,1,242.015,0)"><text x="2258.8px" y="5139.11px" style="font-family:'Quando-Regular', 'Quando', serif;font-size:180.813px;fill:#243c42;">W</text></g></g><g><g><g transform="matrix(0.892857,0,0,1,261.365,0)"><text x="2439.41px" y="5140.78px" style="font-family:'Quando-Regular', 'Quando', serif;font-size:141.536px;fill:#243c42;">E</text></g><g transform="matrix(0.892857,0,0,1,269.821,0)"><text x="2518.33px" y="5139.33px" style="font-family:'Quando-Regular', 'Quando', serif;font-size:141.536px;fill:#243c42;">BDESIGN</text></g></g></g></g><path d="M1965.42,4918.71l1481.92,0" style="fill:none;stroke:#243c42;stroke-width:17.38px;"/></g></svg>